ffmpeg started on 2026-01-14 at 14:04:15
Report written to "D:\Convert\FFMetrics\reports\ssim_report-6.txt"
Log level: 32
Command line:
ffmpeg -hide_banner -nostdin -r 24000/1001 -i "F:\\Convert\\files\\[DC] Make Heroine ga Oosugiru - 07_Telegram_HEVC(130).mkv" -r 24000/1001 -i "F:\\Convert\\files\\[DC] Make Heroine ga Oosugiru - 07_Telegram.mp4" -lavfi "[0:v]settb=AVTB,setpts=PTS-STARTPTS,format=pix_fmts=yuv420p10le,fps=24000/1001,scale=1920:1080:flags=lanczos:param0=3:out_range=limited:out_color_matrix=bt709:out_chroma_loc=left,setsar=1/1,setdar=(1920/1080)*(1/1),colorspace=format=yuv420p10:range=tv:primaries=bt709:trc=bt709:space=bt709:fast=0[main];[1:v]settb=AVTB,setpts=PTS-STARTPTS,format=pix_fmts=yuv420p,fps=24000/1001,scale=1920:1080:flags=lanczos:param0=3:out_range=limited:out_color_matrix=bt709:out_chroma_loc=left,setsar=1.000,setdar=1.778,colorspace=format=yuv420p:range=tv:primaries=bt709:trc=bt709:space=bt709:fast=0[ref];[main][ref]ssim=eof_action=endall:stats_file='D\\:/Convert/FFMetrics/logs/ssim_logfile-6.txt'" -f null -
Input #0, matroska,webm, from 'F:\Convert\files\[DC] Make Heroine ga Oosugiru - 07_Telegram_HEVC(130).mkv':
  Metadata:
    COMPATIBLE_BRANDS: isomiso2avc1mp41
    MAJOR_BRAND     : isom
    MINOR_VERSION   : 512
    ENCODER         : Lavf61.7.100
  Duration: 00:24:06.79, start: -0.021000, bitrate: 978 kb/s
  Stream #0:0: Video: hevc (Main 10), yuv420p10le(tv, bt709, progressive), 1920x1080 [SAR 1:1 DAR 16:9], 23.98 fps, 23.98 tbr, 1k tbn (default)
      Metadata:
        HANDLER_NAME    : VideoHandler
        VENDOR_ID       : [0][0][0][0]
        ENCODER         : Lavc61.19.100 libx265
        BPS             : 781401
        DURATION        : 00:24:06.569708333
        NUMBER_OF_FRAMES: 34683
        NUMBER_OF_BYTES : 141293828
        _STATISTICS_WRITING_APP: mkvpropedit v94.0 ('Initiate') 64-bit
        _STATISTICS_WRITING_DATE_UTC: 2026-01-14 08:58:47
        _STATISTICS_TAGS: BPS DURATION NUMBER_OF_FRAMES NUMBER_OF_BYTES
  Stream #0:1: Audio: aac (LC), 48000 Hz, stereo, fltp (default)
      Metadata:
        HANDLER_NAME    : SoundHandler
        VENDOR_ID       : [0][0][0][0]
        ENCODER         : Lavc61.19.100 aac
        BPS             : 193194
        DURATION        : 00:24:06.784000000
        NUMBER_OF_FRAMES: 67819
        NUMBER_OF_BYTES : 34938755
        _STATISTICS_WRITING_APP: mkvpropedit v94.0 ('Initiate') 64-bit
        _STATISTICS_WRITING_DATE_UTC: 2026-01-14 08:58:47
        _STATISTICS_TAGS: BPS DURATION NUMBER_OF_FRAMES NUMBER_OF_BYTES
Input #1, mov,mp4,m4a,3gp,3g2,mj2, from 'F:\Convert\files\[DC] Make Heroine ga Oosugiru - 07_Telegram.mp4':
  Metadata:
    major_brand     : isom
    minor_version   : 512
    compatible_brands: isomiso2avc1mp41
    encoder         : Lavf60.16.100
  Duration: 00:24:06.74, start: 0.000000, bitrate: 3764 kb/s
  Stream #1:0[0x1](und): Video: h264 (High) (avc1 / 0x31637661), yuv420p(tv, bt709, progressive), 1920x1080 [SAR 1:1 DAR 16:9], 3616 kb/s, 23.98 fps, 23.98 tbr, 24k tbn (default)
      Metadata:
        handler_name    : VideoHandler
        vendor_id       : [0][0][0][0]
        encoder         : Lavc60.31.102 h264_qsv
  Stream #1:1[0x2](und): Audio: aac (HE-AACv2) (mp4a / 0x6134706D), 48000 Hz, stereo, fltp, 144 kb/s (default)
      Metadata:
        handler_name    : SoundHandler
        vendor_id       : [0][0][0][0]
Stream mapping:
  Stream #0:0 (hevc) -> settb:default
  Stream #1:0 (h264) -> settb:default
  ssim:default -> Stream #0:0 (wrapped_avframe)
  Stream #0:1 -> #0:1 (aac (native) -> pcm_s16le (native))
Output #0, null, to 'pipe:':
  Metadata:
    COMPATIBLE_BRANDS: isomiso2avc1mp41
    MAJOR_BRAND     : isom
    MINOR_VERSION   : 512
    encoder         : Lavf61.7.100
  Stream #0:0: Video: wrapped_avframe, yuv420p10le(tv, bt709, progressive), 1920x1080 [SAR 1:1 DAR 16:9], q=2-31, 200 kb/s, 23.98 fps, 23.98 tbn
      Metadata:
        encoder         : Lavc61.19.100 wrapped_avframe
  Stream #0:1: Audio: pcm_s16le, 48000 Hz, stereo, s16, 1536 kb/s (default)
      Metadata:
        HANDLER_NAME    : SoundHandler
        VENDOR_ID       : [0][0][0][0]
        _STATISTICS_TAGS: BPS DURATION NUMBER_OF_FRAMES NUMBER_OF_BYTES
        BPS             : 193194
        DURATION        : 00:24:06.784000000
        NUMBER_OF_FRAMES: 67819
        NUMBER_OF_BYTES : 34938755
        _STATISTICS_WRITING_APP: mkvpropedit v94.0 ('Initiate') 64-bit
        _STATISTICS_WRITING_DATE_UTC: 2026-01-14 08:58:47
        encoder         : Lavc61.19.100 pcm_s16le
frame=  135 fps=0.0 q=-0.0 size=N/A time=00:00:05.63 bitrate=N/A speed=  11x    frame=  318 fps=305 q=-0.0 size=N/A time=00:00:13.26 bitrate=N/A speed=12.7x    frame=  508 fps=328 q=-0.0 size=N/A time=00:00:21.18 bitrate=N/A speed=13.7x    frame=  694 fps=336 q=-0.0 size=N/A time=00:00:28.94 bitrate=N/A speed=  14x    frame=  874 fps=338 q=-0.0 size=N/A time=00:00:36.45 bitrate=N/A speed=14.1x    frame=  994 fps=321 q=-0.0 size=N/A time=00:00:41.45 bitrate=N/A speed=13.4x    frame= 1158 fps=321 q=-0.0 size=N/A time=00:00:48.29 bitrate=N/A speed=13.4x    frame= 1307 fps=316 q=-0.0 size=N/A time=00:00:54.51 bitrate=N/A speed=13.2x    frame= 1452 fps=312 q=-0.0 size=N/A time=00:01:00.56 bitrate=N/A speed=  13x    frame= 1595 fps=309 q=-0.0 size=N/A time=00:01:06.52 bitrate=N/A speed=12.9x    frame= 1747 fps=308 q=-0.0 size=N/A time=00:01:12.86 bitrate=N/A speed=12.8x    frame= 1913 fps=309 q=-0.0 size=N/A time=00:01:19.78 bitrate=N/A speed=12.9x    frame= 2061 fps=307 q=-0.0 size=N/A time=00:01:25.96 bitrate=N/A speed=12.8x    frame= 2191 fps=304 q=-0.0 size=N/A time=00:01:31.38 bitrate=N/A speed=12.7x    frame= 2353 fps=304 q=-0.0 size=N/A time=00:01:38.13 bitrate=N/A speed=12.7x    frame= 2484 fps=301 q=-0.0 size=N/A time=00:01:43.60 bitrate=N/A speed=12.6x    frame= 2634 fps=300 q=-0.0 size=N/A time=00:01:49.85 bitrate=N/A speed=12.5x    frame= 2823 fps=304 q=-0.0 size=N/A time=00:01:57.74 bitrate=N/A speed=12.7x    frame= 2991 fps=305 q=-0.0 size=N/A time=00:02:04.74 bitrate=N/A speed=12.7x    frame= 3178 fps=308 q=-0.0 size=N/A time=00:02:12.54 bitrate=N/A speed=12.8x    frame= 3370 fps=311 q=-0.0 size=N/A time=00:02:20.55 bitrate=N/A speed=  13x    frame= 3562 fps=314 q=-0.0 size=N/A time=00:02:28.56 bitrate=N/A speed=13.1x    frame= 3751 fps=316 q=-0.0 size=N/A time=00:02:36.44 bitrate=N/A speed=13.2x    frame= 3930 fps=318 q=-0.0 size=N/A time=00:02:43.91 bitrate=N/A speed=13.2x    frame= 4120 fps=320 q=-0.0 size=N/A time=00:02:51.83 bitrate=N/A speed=13.3x    frame= 4312 fps=321 q=-0.0 size=N/A time=00:02:59.84 bitrate=N/A speed=13.4x    frame= 4501 fps=323 q=-0.0 size=N/A time=00:03:07.72 bitrate=N/A speed=13.5x    frame= 4686 fps=325 q=-0.0 size=N/A time=00:03:15.44 bitrate=N/A speed=13.5x    frame= 4872 fps=326 q=-0.0 size=N/A time=00:03:23.20 bitrate=N/A speed=13.6x    frame= 5068 fps=327 q=-0.0 size=N/A time=00:03:31.37 bitrate=N/A speed=13.7x    frame= 5247 fps=328 q=-0.0 size=N/A time=00:03:38.84 bitrate=N/A speed=13.7x    frame= 5438 fps=330 q=-0.0 size=N/A time=00:03:46.80 bitrate=N/A speed=13.7x    frame= 5631 fps=331 q=-0.0 size=N/A time=00:03:54.85 bitrate=N/A speed=13.8x    frame= 5819 fps=332 q=-0.0 size=N/A time=00:04:02.70 bitrate=N/A speed=13.8x    frame= 6002 fps=333 q=-0.0 size=N/A time=00:04:10.33 bitrate=N/A speed=13.9x    frame= 6193 fps=333 q=-0.0 size=N/A time=00:04:18.29 bitrate=N/A speed=13.9x    frame= 6384 fps=335 q=-0.0 size=N/A time=00:04:26.26 bitrate=N/A speed=  14x    frame= 6574 fps=336 q=-0.0 size=N/A time=00:04:34.19 bitrate=N/A speed=  14x    frame= 6762 fps=336 q=-0.0 size=N/A time=00:04:42.03 bitrate=N/A speed=  14x    frame= 6949 fps=337 q=-0.0 size=N/A time=00:04:49.83 bitrate=N/A speed=  14x    frame= 7131 fps=337 q=-0.0 size=N/A time=00:04:57.42 bitrate=N/A speed=14.1x    frame= 7323 fps=338 q=-0.0 size=N/A time=00:05:05.43 bitrate=N/A speed=14.1x    frame= 7504 fps=338 q=-0.0 size=N/A time=00:05:12.97 bitrate=N/A speed=14.1x    frame= 7687 fps=339 q=-0.0 size=N/A time=00:05:20.61 bitrate=N/A speed=14.1x    frame= 7876 fps=339 q=-0.0 size=N/A time=00:05:28.49 bitrate=N/A speed=14.2x    frame= 8058 fps=340 q=-0.0 size=N/A time=00:05:36.08 bitrate=N/A speed=14.2x    frame= 8246 fps=340 q=-0.0 size=N/A time=00:05:43.92 bitrate=N/A speed=14.2x    frame= 8424 fps=340 q=-0.0 size=N/A time=00:05:51.35 bitrate=N/A speed=14.2x    frame= 8614 fps=341 q=-0.0 size=N/A time=00:05:59.27 bitrate=N/A speed=14.2x    frame= 8805 fps=341 q=-0.0 size=N/A time=00:06:07.24 bitrate=N/A speed=14.2x    frame= 8987 fps=341 q=-0.0 size=N/A time=00:06:14.83 bitrate=N/A speed=14.2x    frame= 9169 fps=342 q=-0.0 size=N/A time=00:06:22.42 bitrate=N/A speed=14.3x    frame= 9360 fps=342 q=-0.0 size=N/A time=00:06:30.39 bitrate=N/A speed=14.3x    frame= 9548 fps=342 q=-0.0 size=N/A time=00:06:38.23 bitrate=N/A speed=14.3x    frame= 9724 fps=342 q=-0.0 size=N/A time=00:06:45.57 bitrate=N/A speed=14.3x    frame= 9918 fps=343 q=-0.0 size=N/A time=00:06:53.66 bitrate=N/A speed=14.3x    frame=10109 fps=343 q=-0.0 size=N/A time=00:07:01.62 bitrate=N/A speed=14.3x    frame=10291 fps=344 q=-0.0 size=N/A time=00:07:09.22 bitrate=N/A speed=14.3x    frame=10477 fps=344 q=-0.0 size=N/A time=00:07:16.97 bitrate=N/A speed=14.3x    frame=10661 fps=344 q=-0.0 size=N/A time=00:07:24.65 bitrate=N/A speed=14.4x    frame=10853 fps=345 q=-0.0 size=N/A time=00:07:32.66 bitrate=N/A speed=14.4x    frame=11034 fps=345 q=-0.0 size=N/A time=00:07:40.20 bitrate=N/A speed=14.4x    frame=11212 fps=345 q=-0.0 size=N/A time=00:07:47.63 bitrate=N/A speed=14.4x    frame=11403 fps=345 q=-0.0 size=N/A time=00:07:55.60 bitrate=N/A speed=14.4x    frame=11584 fps=345 q=-0.0 size=N/A time=00:08:03.14 bitrate=N/A speed=14.4x    frame=11774 fps=346 q=-0.0 size=N/A time=00:08:11.07 bitrate=N/A speed=14.4x    frame=11958 fps=346 q=-0.0 size=N/A time=00:08:18.74 bitrate=N/A speed=14.4x    frame=12149 fps=346 q=-0.0 size=N/A time=00:08:26.71 bitrate=N/A speed=14.4x    frame=12335 fps=346 q=-0.0 size=N/A time=00:08:34.47 bitrate=N/A speed=14.4x    frame=12521 fps=347 q=-0.0 size=N/A time=00:08:42.23 bitrate=N/A speed=14.5x    frame=12708 fps=347 q=-0.0 size=N/A time=00:08:50.02 bitrate=N/A speed=14.5x    frame=12901 fps=347 q=-0.0 size=N/A time=00:08:58.07 bitrate=N/A speed=14.5x    frame=13086 fps=347 q=-0.0 size=N/A time=00:09:05.79 bitrate=N/A speed=14.5x    frame=13267 fps=347 q=-0.0 size=N/A time=00:09:13.34 bitrate=N/A speed=14.5x    frame=13453 fps=348 q=-0.0 size=N/A time=00:09:21.10 bitrate=N/A speed=14.5x    frame=13646 fps=348 q=-0.0 size=N/A time=00:09:29.15 bitrate=N/A speed=14.5x    frame=13832 fps=348 q=-0.0 size=N/A time=00:09:36.90 bitrate=N/A speed=14.5x    frame=14019 fps=348 q=-0.0 size=N/A time=00:09:44.70 bitrate=N/A speed=14.5x    frame=14189 fps=348 q=-0.0 size=N/A time=00:09:51.79 bitrate=N/A speed=14.5x    frame=14382 fps=348 q=-0.0 size=N/A time=00:09:59.84 bitrate=N/A speed=14.5x    frame=14570 fps=348 q=-0.0 size=N/A time=00:10:07.69 bitrate=N/A speed=14.5x    frame=14756 fps=349 q=-0.0 size=N/A time=00:10:15.44 bitrate=N/A speed=14.5x    frame=14941 fps=349 q=-0.0 size=N/A time=00:10:23.16 bitrate=N/A speed=14.5x    frame=15119 fps=349 q=-0.0 size=N/A time=00:10:30.58 bitrate=N/A speed=14.5x    frame=15289 fps=348 q=-0.0 size=N/A time=00:10:37.67 bitrate=N/A speed=14.5x    frame=15479 fps=349 q=-0.0 size=N/A time=00:10:45.60 bitrate=N/A speed=14.5x    frame=15663 fps=349 q=-0.0 size=N/A time=00:10:53.27 bitrate=N/A speed=14.5x    frame=15855 fps=349 q=-0.0 size=N/A time=00:11:01.28 bitrate=N/A speed=14.6x    frame=16042 fps=349 q=-0.0 size=N/A time=00:11:09.08 bitrate=N/A speed=14.6x    frame=16216 fps=349 q=-0.0 size=N/A time=00:11:16.34 bitrate=N/A speed=14.6x    frame=16403 fps=349 q=-0.0 size=N/A time=00:11:24.14 bitrate=N/A speed=14.6x    frame=16591 fps=349 q=-0.0 size=N/A time=00:11:31.98 bitrate=N/A speed=14.6x    frame=16778 fps=349 q=-0.0 size=N/A time=00:11:39.78 bitrate=N/A speed=14.6x    frame=16969 fps=350 q=-0.0 size=N/A time=00:11:47.74 bitrate=N/A speed=14.6x    frame=17155 fps=350 q=-0.0 size=N/A time=00:11:55.50 bitrate=N/A speed=14.6x    frame=17351 fps=350 q=-0.0 size=N/A time=00:12:03.68 bitrate=N/A speed=14.6x    frame=17534 fps=350 q=-0.0 size=N/A time=00:12:11.31 bitrate=N/A speed=14.6x    frame=17721 fps=350 q=-0.0 size=N/A time=00:12:19.11 bitrate=N/A speed=14.6x    frame=17900 fps=350 q=-0.0 size=N/A time=00:12:26.57 bitrate=N/A speed=14.6x    frame=18088 fps=350 q=-0.0 size=N/A time=00:12:34.42 bitrate=N/A speed=14.6x    frame=18270 fps=351 q=-0.0 size=N/A time=00:12:42.01 bitrate=N/A speed=14.6x    frame=18454 fps=351 q=-0.0 size=N/A time=00:12:49.68 bitrate=N/A speed=14.6x    frame=18638 fps=351 q=-0.0 size=N/A time=00:12:57.35 bitrate=N/A speed=14.6x    frame=18828 fps=351 q=-0.0 size=N/A time=00:13:05.28 bitrate=N/A speed=14.6x    frame=19015 fps=351 q=-0.0 size=N/A time=00:13:13.08 bitrate=N/A speed=14.6x    frame=19210 fps=351 q=-0.0 size=N/A time=00:13:21.21 bitrate=N/A speed=14.6x    frame=19400 fps=351 q=-0.0 size=N/A time=00:13:29.14 bitrate=N/A speed=14.7x    frame=19588 fps=351 q=-0.0 size=N/A time=00:13:36.98 bitrate=N/A speed=14.7x    frame=19777 fps=352 q=-0.0 size=N/A time=00:13:44.86 bitrate=N/A speed=14.7x    frame=19968 fps=352 q=-0.0 size=N/A time=00:13:52.83 bitrate=N/A speed=14.7x    frame=20160 fps=352 q=-0.0 size=N/A time=00:14:00.84 bitrate=N/A speed=14.7x    frame=20341 fps=352 q=-0.0 size=N/A time=00:14:08.38 bitrate=N/A speed=14.7x    frame=20524 fps=352 q=-0.0 size=N/A time=00:14:16.02 bitrate=N/A speed=14.7x    frame=20709 fps=352 q=-0.0 size=N/A time=00:14:23.73 bitrate=N/A speed=14.7x    frame=20895 fps=352 q=-0.0 size=N/A time=00:14:31.49 bitrate=N/A speed=14.7x    frame=21090 fps=352 q=-0.0 size=N/A time=00:14:39.62 bitrate=N/A speed=14.7x    frame=21280 fps=352 q=-0.0 size=N/A time=00:14:47.55 bitrate=N/A speed=14.7x    frame=21466 fps=352 q=-0.0 size=N/A time=00:14:55.31 bitrate=N/A speed=14.7x    frame=21661 fps=353 q=-0.0 size=N/A time=00:15:03.44 bitrate=N/A speed=14.7x    frame=21848 fps=353 q=-0.0 size=N/A time=00:15:11.24 bitrate=N/A speed=14.7x    frame=22025 fps=353 q=-0.0 size=N/A time=00:15:18.62 bitrate=N/A speed=14.7x    frame=22225 fps=353 q=-0.0 size=N/A time=00:15:26.96 bitrate=N/A speed=14.7x    frame=22413 fps=353 q=-0.0 size=N/A time=00:15:34.80 bitrate=N/A speed=14.7x    frame=22603 fps=353 q=-0.0 size=N/A time=00:15:42.73 bitrate=N/A speed=14.7x    frame=22785 fps=353 q=-0.0 size=N/A time=00:15:50.32 bitrate=N/A speed=14.7x    frame=22980 fps=353 q=-0.0 size=N/A time=00:15:58.45 bitrate=N/A speed=14.7x    frame=23168 fps=353 q=-0.0 size=N/A time=00:16:06.29 bitrate=N/A speed=14.7x    frame=23353 fps=353 q=-0.0 size=N/A time=00:16:14.01 bitrate=N/A speed=14.7x    frame=23546 fps=353 q=-0.0 size=N/A time=00:16:22.06 bitrate=N/A speed=14.7x    frame=23738 fps=354 q=-0.0 size=N/A time=00:16:30.07 bitrate=N/A speed=14.7x    frame=23923 fps=354 q=-0.0 size=N/A time=00:16:37.78 bitrate=N/A speed=14.8x    frame=24112 fps=354 q=-0.0 size=N/A time=00:16:45.67 bitrate=N/A speed=14.8x    frame=24300 fps=354 q=-0.0 size=N/A time=00:16:53.51 bitrate=N/A speed=14.8x    frame=24488 fps=354 q=-0.0 size=N/A time=00:17:01.35 bitrate=N/A speed=14.8x    frame=24680 fps=354 q=-0.0 size=N/A time=00:17:09.36 bitrate=N/A speed=14.8x    frame=24865 fps=354 q=-0.0 size=N/A time=00:17:17.07 bitrate=N/A speed=14.8x    frame=25056 fps=354 q=-0.0 size=N/A time=00:17:25.04 bitrate=N/A speed=14.8x    frame=25238 fps=354 q=-0.0 size=N/A time=00:17:32.63 bitrate=N/A speed=14.8x    frame=25428 fps=354 q=-0.0 size=N/A time=00:17:40.55 bitrate=N/A speed=14.8x    frame=25619 fps=354 q=-0.0 size=N/A time=00:17:48.52 bitrate=N/A speed=14.8x    frame=25807 fps=354 q=-0.0 size=N/A time=00:17:56.36 bitrate=N/A speed=14.8x    frame=25999 fps=355 q=-0.0 size=N/A time=00:18:04.37 bitrate=N/A speed=14.8x    frame=26185 fps=355 q=-0.0 size=N/A time=00:18:12.13 bitrate=N/A speed=14.8x    frame=26371 fps=355 q=-0.0 size=N/A time=00:18:19.89 bitrate=N/A speed=14.8x    frame=26564 fps=355 q=-0.0 size=N/A time=00:18:27.94 bitrate=N/A speed=14.8x    frame=26754 fps=355 q=-0.0 size=N/A time=00:18:35.86 bitrate=N/A speed=14.8x    frame=26939 fps=355 q=-0.0 size=N/A time=00:18:43.58 bitrate=N/A speed=14.8x    frame=27117 fps=355 q=-0.0 size=N/A time=00:18:51.00 bitrate=N/A speed=14.8x    frame=27301 fps=355 q=-0.0 size=N/A time=00:18:58.67 bitrate=N/A speed=14.8x    frame=27486 fps=355 q=-0.0 size=N/A time=00:19:06.39 bitrate=N/A speed=14.8x    frame=27674 fps=355 q=-0.0 size=N/A time=00:19:14.23 bitrate=N/A speed=14.8x    frame=27856 fps=355 q=-0.0 size=N/A time=00:19:21.82 bitrate=N/A speed=14.8x    frame=28043 fps=355 q=-0.0 size=N/A time=00:19:29.62 bitrate=N/A speed=14.8x    frame=28232 fps=355 q=-0.0 size=N/A time=00:19:37.50 bitrate=N/A speed=14.8x    frame=28420 fps=355 q=-0.0 size=N/A time=00:19:45.35 bitrate=N/A speed=14.8x    frame=28595 fps=355 q=-0.0 size=N/A time=00:19:52.64 bitrate=N/A speed=14.8x    frame=28773 fps=355 q=-0.0 size=N/A time=00:20:00.07 bitrate=N/A speed=14.8x    frame=28940 fps=355 q=-0.0 size=N/A time=00:20:07.03 bitrate=N/A speed=14.8x    frame=29114 fps=355 q=-0.0 size=N/A time=00:20:14.29 bitrate=N/A speed=14.8x    frame=29284 fps=355 q=-0.0 size=N/A time=00:20:21.38 bitrate=N/A speed=14.8x    frame=29451 fps=354 q=-0.0 size=N/A time=00:20:28.35 bitrate=N/A speed=14.8x    frame=29617 fps=354 q=-0.0 size=N/A time=00:20:35.27 bitrate=N/A speed=14.8x    frame=29794 fps=354 q=-0.0 size=N/A time=00:20:42.65 bitrate=N/A speed=14.8x    frame=29944 fps=354 q=-0.0 size=N/A time=00:20:48.91 bitrate=N/A speed=14.8x    frame=30100 fps=353 q=-0.0 size=N/A time=00:20:55.42 bitrate=N/A speed=14.7x    frame=30281 fps=353 q=-0.0 size=N/A time=00:21:02.97 bitrate=N/A speed=14.7x    frame=30460 fps=353 q=-0.0 size=N/A time=00:21:10.43 bitrate=N/A speed=14.7x    frame=30642 fps=353 q=-0.0 size=N/A time=00:21:18.02 bitrate=N/A speed=14.7x    frame=30826 fps=353 q=-0.0 size=N/A time=00:21:25.70 bitrate=N/A speed=14.7x    frame=31010 fps=353 q=-0.0 size=N/A time=00:21:33.37 bitrate=N/A speed=14.7x    frame=31197 fps=353 q=-0.0 size=N/A time=00:21:41.17 bitrate=N/A speed=14.7x    frame=31380 fps=353 q=-0.0 size=N/A time=00:21:48.80 bitrate=N/A speed=14.7x    frame=31565 fps=353 q=-0.0 size=N/A time=00:21:56.52 bitrate=N/A speed=14.7x    frame=31733 fps=353 q=-0.0 size=N/A time=00:22:03.53 bitrate=N/A speed=14.7x    frame=31897 fps=353 q=-0.0 size=N/A time=00:22:10.37 bitrate=N/A speed=14.7x    frame=32070 fps=353 q=-0.0 size=N/A time=00:22:17.58 bitrate=N/A speed=14.7x    frame=32251 fps=353 q=-0.0 size=N/A time=00:22:25.13 bitrate=N/A speed=14.7x    frame=32415 fps=353 q=-0.0 size=N/A time=00:22:31.97 bitrate=N/A speed=14.7x    frame=32579 fps=353 q=-0.0 size=N/A time=00:22:38.81 bitrate=N/A speed=14.7x    frame=32708 fps=352 q=-0.0 size=N/A time=00:22:44.19 bitrate=N/A speed=14.7x    frame=32824 fps=351 q=-0.0 size=N/A time=00:22:49.03 bitrate=N/A speed=14.7x    frame=32961 fps=351 q=-0.0 size=N/A time=00:22:54.74 bitrate=N/A speed=14.6x    frame=33108 fps=350 q=-0.0 size=N/A time=00:23:00.87 bitrate=N/A speed=14.6x    frame=33245 fps=350 q=-0.0 size=N/A time=00:23:06.59 bitrate=N/A speed=14.6x    frame=33381 fps=350 q=-0.0 size=N/A time=00:23:12.26 bitrate=N/A speed=14.6x    frame=33509 fps=349 q=-0.0 size=N/A time=00:23:17.60 bitrate=N/A speed=14.6x    frame=33646 fps=349 q=-0.0 size=N/A time=00:23:23.31 bitrate=N/A speed=14.5x    frame=33769 fps=348 q=-0.0 size=N/A time=00:23:28.44 bitrate=N/A speed=14.5x    frame=33890 fps=347 q=-0.0 size=N/A time=00:23:33.49 bitrate=N/A speed=14.5x    frame=34028 fps=347 q=-0.0 size=N/A time=00:23:39.25 bitrate=N/A speed=14.5x    frame=34163 fps=346 q=-0.0 size=N/A time=00:23:44.88 bitrate=N/A speed=14.5x    frame=34304 fps=346 q=-0.0 size=N/A time=00:23:50.76 bitrate=N/A speed=14.4x    frame=34422 fps=346 q=-0.0 size=N/A time=00:23:55.68 bitrate=N/A speed=14.4x    frame=34554 fps=345 q=-0.0 size=N/A time=00:24:01.18 bitrate=N/A speed=14.4x    [Parsed_ssim_16 @ 000002a8ae547780] SSIM Y:0.994183 (22.353047) U:0.993987 (22.209106) V:0.993595 (21.935003) All:0.994052 (22.256596)
[out#0/null @ 000002a8a0fbfe80] video:14903KiB audio:271276KiB subtitle:0KiB other streams:0KiB global headers:0KiB muxing overhead: unknown
frame=34683 fps=345 q=-0.0 Lsize=N/A time=00:24:06.57 bitrate=N/A speed=14.4x    
